<svg xmlns="http://www.w3.org/2000/svg" xmlns:xlink="http://www.w3.org/1999/xlink" version="1.1" x="0px" y="0px" viewBox="0 0 64 80" style="enable-background:new 0 0 64 64;" xml:space="preserve"><path d="M61,21.2c0-9.3-7-16.9-15.6-16.9c-5.6,0-10.6,3.2-13.4,8.2c-2.8-5.1-7.8-8.2-13.4-8.2C10,4.2,3,11.8,3,21.1  c0,0.2-0.6,17,16.3,27.1l0.6,0.4c6,3.6,9.4,5.6,11.2,10.6c0.1,0.4,0.5,0.7,0.9,0.7s0.8-0.3,0.9-0.7c1.8-5,5.1-6.9,11.2-10.6l0.6-0.4  C61.6,38.1,61,21.3,61,21.2z M43.7,46.5l-0.6,0.4c-5.4,3.2-8.9,5.3-11.1,9.5c-2.2-4.1-5.7-6.2-11.1-9.5l-0.6-0.4  C4.5,37,5,21.4,5,21.2c0-8.2,6.1-14.9,13.6-14.9c5.4,0,10.3,3.5,12.5,9c0.2,0.4,0.5,0.6,0.9,0.6s0.8-0.3,0.9-0.6c2.2-5.4,7-9,12.5-9  c7.5,0,13.6,6.7,13.6,15C59,21.4,59.5,37,43.7,46.5z"/><text x="0" y="79" fill="#000000" font-size="5px" font-weight="bold" font-family="'Helvetica Neue', Helvetica, Arial-Unicode, Arial, Sans-serif">Created by silvana</text><text x="0" y="84" fill="#000000" font-size="5px" font-weight="bold" font-family="'Helvetica Neue', Helvetica, Arial-Unicode, Arial, Sans-serif">from the Noun Project</text></svg>