<svg xmlns="http://www.w3.org/2000/svg" xmlns:xlink="http://www.w3.org/1999/xlink" version="1.1" x="0px" y="0px" viewBox="0 0 64 80" style="enable-background:new 0 0 64 64;" xml:space="preserve"><g><path d="M60.71,19.61L44.39,3.29c-0.29-0.29-0.72-0.37-1.09-0.22C42.92,3.23,42.68,3.6,42.68,4v7.97   c-8.1,1.15-30.11,6.89-31.68,35.17c-0.03,0.48,0.29,0.91,0.75,1.02c0.08,0.02,0.17,0.03,0.25,0.03c0.38,0,0.73-0.22,0.9-0.57   c0.08-0.18,8.58-17.5,29.78-18.61v7.62c0,0.4,0.24,0.77,0.62,0.92c0.37,0.15,0.8,0.07,1.09-0.22l16.32-16.32   C61.1,20.64,61.1,20,60.71,19.61z M44.68,34.23v-6.25c0-0.27-0.11-0.53-0.3-0.72c-0.19-0.19-0.45-0.3-0.72-0.28   C26.92,27.43,17.42,37.46,13.4,43.06c3.28-23.43,22.11-28.24,30.39-29.22c0.5-0.06,0.88-0.49,0.88-0.99V6.41l13.91,13.91   L44.68,34.23z"/><path d="M55,59H5V9c0-0.55-0.45-1-1-1S3,8.45,3,9v51c0,0.55,0.45,1,1,1h51c0.55,0,1-0.45,1-1S55.55,59,55,59z"/></g><text x="0" y="79" fill="#000000" font-size="5px" font-weight="bold" font-family="'Helvetica Neue', Helvetica, Arial-Unicode, Arial, Sans-serif">Created by Desi Aulia</text><text x="0" y="84" fill="#000000" font-size="5px" font-weight="bold" font-family="'Helvetica Neue', Helvetica, Arial-Unicode, Arial, Sans-serif">from the Noun Project</text></svg>